<?xml version="1.0" encoding="UTF-8" standalone="no"?><!DOCTYPE svg PUBLIC "-//W3C//DTD SVG 1.1//EN" "http://www.w3.org/Graphics/SVG/1.1/DTD/svg11.dtd"><svg width="100%" height="100%" viewBox="0 0 1024 518" version="1.1" xmlns="http://www.w3.org/2000/svg" xmlns:xlink="http://www.w3.org/1999/xlink" xml:space="preserve" xmlns:serif="http://www.serif.com/" style="fill-rule:evenodd;clip-rule:evenodd;stroke-linejoin:round;stroke-miterlimit:1.41421;"><rect id="Artboard1" x="0" y="0" width="1024" height="518" style="fill:none;"/><g><path d="M856.4,324.1c-49,-8.3 -102.3,-10.1 -160.1,-5.6l-7.7,0.6c-4.3,0.3 -8.7,0.7 -13,1.1c9.3,-29.6 20.8,-62.2 34.3,-97.8c42.3,-110.4 62.4,-178.7 60.4,-205l-0.3,-3.7c-0.6,-7.5 -5.2,-11.5 -13.9,-11.9l-1.3,0.1c-17.8,1.4 -39.2,20.4 -63.7,56.9c-10.1,13.7 -25.5,37 -46.5,69.8c-44.1,75.5 -74.1,123.8 -89.9,144.9c-0.2,-2.2 -0.1,-5.7 0.2,-10.7c7.4,-71.3 11.2,-116.6 11.5,-135.9c-0.9,-12.1 -5.3,-17.8 -13.1,-17.2l-2.7,0.2c-3.2,0.3 -7.8,3.3 -13.6,9.1c-19,33.9 -52.7,111.5 -101.1,232.6l-1.2,0.1c4.1,-18.9 8.6,-38 13.4,-57.2c2,-2.1 4.1,-4.4 6.1,-6.8l-0.2,-2.5c-0.1,-1.6 -1,-2.5 -2.6,-2.5l-0.4,0c11.5,-44.7 24.9,-90.2 40.2,-136.8l-1.7,-5.1l-7.9,0.6c-8.1,3.9 -13.7,9.4 -16.7,16.8c2,1.6 5.1,2.3 9.3,2c-17.7,55.7 -31,100.7 -40,135c-10.8,9.3 -20,14.5 -27.5,15.6l-1.2,0.1c-0.3,-2.7 1.4,-8.9 5,-18.6c18.6,-7 27.7,-12.9 27.3,-17.5c-0.4,-5.4 -4.2,-8.2 -11.3,-8.4l-2.3,0.2l-9,3.6c-6,7.6 -10.6,12.9 -13.6,16.1c-0.1,0 -0.1,0.1 -0.2,0.1c-0.1,0.1 -0.2,0.2 -0.2,0.3c-1.9,1.9 -3.2,2.9 -3.9,3l0.2,2.3c-20,27.6 -32.1,41.5 -36.2,41.8l-1.4,0.1c0,-0.7 -0.5,-1.9 -1.3,-3.7c-0.8,-19.3 17.3,-80.1 54.4,-182.4c13,-33.7 19.2,-51.5 19.1,-53.4c12.2,-21.9 19.9,-39.4 23.3,-52.5c-0.2,-3.3 -1.7,-4.9 -4.2,-4.7l-2.7,0.2l-6.5,1.7c-47,122.6 -76.4,206.9 -88.3,253c-8,8.7 -15.3,14.5 -22,17.5c1.6,-11.6 2.4,-17.8 2.3,-18.4c-2.2,-8.5 -5.5,-12.6 -10,-12.2l-7.6,1.9c-4,3.6 -7.3,7.4 -9.8,11.5l-0.3,0c-4.2,0.3 -8.4,3.2 -12.3,8.7c-82,75.7 -143.4,115.2 -184.3,118.4l-9.1,0.8c-30,-7.5 -46.2,-27.4 -48.8,-59.6c0.2,-8.9 1.4,-21.6 3.6,-38c5.8,-23.6 15.7,-49.9 30.1,-78.8c20.9,-39 48.5,-78.9 82.8,-119.6c30.1,-31.6 56.8,-54.4 80.5,-68.6c32.5,-19.1 61.4,-29.6 87,-31.7c7.9,-0.6 13.7,2 17.4,7.9l0.6,7.7c0.4,5.4 -3.3,17.4 -11.3,35.9c-8.7,8.3 -16.1,18.8 -22.4,31.7c1.7,2.4 3.1,3.6 4.4,3.4l7.7,-0.6c24.1,-33.1 35.6,-56.3 34.5,-70l-0.5,-6.4c-2.5,-12 -10.3,-17.5 -23.1,-16.5l-18.1,1.4c-25.4,2 -54.8,13.3 -88.3,34.1c-23.1,12.6 -52.7,38.7 -88.7,78.5c-76.1,97.6 -112.2,173.2 -108,226.9l0.5,9.9c0.3,4 1,8.4 2.1,12.8c13.2,33.7 34.7,49.2 64.9,46.9c20.3,-2.7 31.4,-5.3 33.3,-7.9c20.1,-2.7 61.4,-28.5 123.8,-77.4c15.6,-14.6 27.4,-25.6 35.5,-33c-0.5,3.3 -0.6,6.8 -0.3,10.4l0.1,1.4c0.3,4.4 2.3,7.2 5.7,8.4l11.7,-0.9c6.5,-4.9 9.8,-9 9.5,-12.3c8.3,-0.6 16,-3.7 23.2,-9.2c-2,9.7 -2.9,16.7 -2.5,21.1l0.4,5.4c0.4,5.8 3.7,8.6 9.8,8.1c11.1,-0.9 23.3,-10.1 36.7,-27.6c1.4,2.6 4.3,3.8 8.8,3.4l7.5,-0.6c6.2,-0.5 12.7,-3 19.6,-7.5c-7.6,30.7 -11,51.1 -10.2,61.3l0.2,2.7c0,1.3 2,2.5 5.6,3.4c2.1,-0.1 5.5,-0.8 10.1,-2c14.5,-26.4 39.7,-85.1 75.7,-175.9c16.2,-40.2 29.3,-66.4 39.3,-78.7c0.2,0.9 0.7,2.2 1.8,4c0.3,4.3 0.4,10.8 0,19.5c-8.2,81.5 -11.9,126.4 -11.3,134.6c0.4,5.4 4,8.2 10.9,8.3l1.2,-0.1c4.8,-0.4 11.3,-6.7 19.4,-18.7l94.1,-155.3c36.8,-58.4 65.3,-93 85.5,-104.2c2.1,-0.1 4.1,3.6 6.1,11.1c-1.1,17.3 -3.9,32.2 -8.2,44.9c-6.5,23.6 -17.2,57.3 -32.3,101.2c-23.4,58.9 -42.2,110.9 -56.2,156c-14.9,1.6 -30.1,3.6 -45.7,6c-102.6,17.3 -153.7,27.8 -153.4,31.6l0.2,2.5c1,-0.1 2.4,0.2 4.3,0.9c81.3,-17.3 145.5,-28.7 192.6,-34.1c-21.5,70.9 -30.9,124.6 -28,161.1c1.4,17.3 6.3,25.5 14.9,24.9c6.6,-0.6 10.8,-3.1 12.4,-7.5l-0.3,-3.7c-1.9,0.1 -3.7,-0.2 -5.2,-1.1l-6.3,3.2l-2.5,-12.8l-0.5,-6.4c-2.7,-35.1 6.9,-88.1 28.9,-159.1c4.1,-0.4 8.1,-0.8 11.9,-1.1l21.7,-1.7c85.4,-2.1 131.1,0.8 137.1,8.7c9.5,-0.7 14.2,-2.4 14.1,-4.9l-0.1,-1.2l-1.7,-2.7Zm-430.4,-49.8l-5,5.7l-1.1,0c0.2,-1.9 2.2,-3.8 6.1,-5.7Zm-114.3,48.4l-1.2,0.1l-0.3,-3.7l0.2,-13c4.3,5.6 6.7,8.4 7.1,8.4c-0.8,3.6 -2.7,6.3 -5.8,8.2Zm10.1,-20.3l-0.4,-5l1.2,-0.1l0.4,5l-1.2,0.1Zm0.7,-6.5l-0.4,-5l1.4,-0.1l0.4,5l-1.4,0.1Z" style="fill:#53657d;fill-rule:nonzero;"/><path d="M902.9,480.1l84.4,-249.7l-0.1,-1.4c-0.1,-1.4 -1.1,-2.2 -2.9,-2.1l-3.9,0.2c-18.4,24.5 -29.8,38.5 -34.3,41.7l7,-22.8c0.5,-0.5 1,-1.1 1.5,-1.6l-0.2,-2.7c0,-0.3 -0.1,-0.6 -0.2,-0.9l-0.1,-1.3l-1.3,0.1c-0.4,-0.1 -0.8,-0.2 -1.3,-0.2l-1.2,0.1c-0.3,0 -0.7,0.1 -1.2,0.4l-1.4,0.1c-0.4,0.4 -0.7,0.8 -1.1,1.3c-4.6,2.8 -12.7,9.1 -24.4,18.7l-1.4,0.1c2.2,-7.1 3.3,-11.5 3.1,-13.3l-0.4,-5.2c-1,0.2 -4.2,-1.3 -9.5,-4.3c-0.2,-2.1 0.1,-0.7 2.2,-6.6c-0.7,-8.6 -1.6,-9.2 -9.3,-8.6l-3.3,-0.2c-4.6,0.4 -5.5,0.2 -8.5,5.7l0.3,4c2.3,7.7 2,5.6 4.5,5.4c-2,4.3 -4,8.5 -5.9,12.7c-15.7,15.6 -28.4,24.2 -38.4,25.6l-1.2,0.1c-0.3,-2.7 1.4,-8.9 5,-18.6c18.6,-7 27.7,-12.9 27.3,-17.5c-0.4,-5.4 -4.2,-8.2 -11.3,-8.4l-2.3,0.2l-9,3.6c-5.3,6.6 -9.4,11.5 -12.4,14.7l-4.2,-0.5c-9.7,4.1 -14.7,6.2 -15.2,6.3c-1.8,0.1 -4.4,-1.8 -8,-5.9l-4.1,0.3c-3.7,0.3 -8.6,9 -14.8,25.9l-1.2,0.1l-0.1,-1.4c2.9,-17.9 4.1,-30.1 3.6,-36.6c-0.1,-1.6 -2.4,-2.3 -6.7,-2.2c-6.6,0.5 -13.5,12.4 -20.6,35.5l-1.4,0.1l-0.1,-1.4c1.8,-9.8 2.6,-15.9 2.4,-18.2c-0.2,-2.5 -1.1,-3.8 -2.6,-3.6l-4.1,0.3c-2.1,0.1 -4,3.6 -5.5,10.3c-8.3,9.2 -16,15.4 -22.9,18.5c1.6,-11.6 2.4,-17.8 2.3,-18.4c-2.2,-8.5 -5.5,-12.6 -10,-12.2l-7.6,1.9c-12.1,10.8 -17.6,23.8 -16.4,38.8l0.1,1.4c0.3,4.4 2.3,7.2 5.7,8.4l11.7,-0.9c6.5,-4.9 9.8,-9 9.5,-12.3c9,-0.7 17.5,-4.3 25.2,-10.9c-0.6,5 -1.2,10.8 -1.7,17.4c2.1,3.8 4,5.9 5.7,6.1l3.9,-0.3c6.4,-0.6 12.3,-9.7 17.4,-27.4l1.4,-0.1l0.1,1.4l-0.8,7.9l0.6,7.9c1.5,2.5 2.8,3.6 4,3.5l5.2,-0.4c7.2,-0.6 14.1,-8.8 20.4,-24.7l11.8,0.5c4.8,-1 9.2,-2.8 13.1,-5.4l0.1,0.1c-3.8,6 -5.6,11.4 -5.2,16.1c0.5,5 3.6,7.3 9.8,6.8l7.5,-0.6c7.8,-0.6 16.2,-4.4 25,-11.4c-6.8,15.9 -12.4,30.2 -16.2,42.1c0.1,1.5 1,2.3 2.7,2.1l7.7,-0.6c5.8,-15.9 15.7,-38.8 29.8,-68.5l2.7,1c0.1,1.4 -0.8,6.3 -2.6,14.7c0.5,5.1 3.6,7.5 9.8,7l2.3,-0.2c4.8,-0.4 10.4,-2.9 16.6,-7.6c-1.1,3.5 -2.2,7.5 -3.3,11.8c1.7,3.4 3.2,5.1 4.4,4.9l10.3,-0.8c7.1,-4.5 12.8,-10.1 16.9,-16.8l1.2,-0.1c-16.9,48.1 -43.5,126.8 -80.1,236.2c0.3,2.6 1.2,3.9 3,3.8l5,-0.4c4.9,-4.5 8.5,-9.5 10.5,-15.1c-0.1,-2.4 -1.1,-3.6 -2.8,-3.5Zm-27.8,-241.2l-5,5.7l-1.1,0c0.2,-1.8 2.3,-3.7 6.1,-5.7Zm-149,51.2l-1.2,0.1l-0.3,-3.7l0.2,-13c4.3,5.6 6.7,8.4 7.1,8.4c-0.8,3.6 -2.8,6.4 -5.8,8.2Zm10.1,-20.2l-0.4,-5l1.2,-0.1l0.4,5l-1.2,0.1Zm0.8,-6.6l-0.4,-5l1.4,-0.1l0.4,5l-1.4,0.1Z" style="fill:#53657d;fill-rule:nonzero;"/></g></svg>